# xmcd
#
# Track frame offsets:
#	150
#	34163
#	58466
#	122066
#	127781
#	159897
#	186548
#	231677
#	284415
#
# Disc length: 4457 seconds
#
# Revision: 1
# Processed by: cddbd v1.5.1PL0 Copyright (c) Steve Scherf et al.
# Submitted via: EasyCDDAExtractor 6.0.0.1
#
DISCID=87116709
DTITLE=The Dead - 2004, 06/15 - Disc 2
DYEAR=2004
DGENRE=
TTITLE0=El Paso
TTITLE1=Into The Mystic
TTITLE2=West L.A. Fadeaway
TTITLE3=Playin' Tease
TTITLE4=Jam III
TTITLE5=Pride Of Cucamonga
TTITLE6=Uncle John's Band
TTITLE7=Strange World
TTITLE8=Drums
EXTD=
EXTT0=
EXTT1=
EXTT2=
EXTT3=
EXTT4=
EXTT5=
EXTT6=
EXTT7=
EXTT8=
PLAYORDER=
